<svg xmlns="http://www.w3.org/2000/svg" viewBox="0 0 96 96" role="img" aria-labelledby="title desc">
  <title id="title">Receitas</title>
  <desc id="desc">Logo moderna com panela, vapor, colher, tomate e folha.</desc>
  <defs>
    <linearGradient id="bg" x1="10" y1="8" x2="86" y2="90" gradientUnits="userSpaceOnUse">
      <stop stop-color="#171916"/>
      <stop offset="1" stop-color="#3f4a33"/>
    </linearGradient>
    <linearGradient id="bowl" x1="19" y1="46" x2="77" y2="79" gradientUnits="userSpaceOnUse">
      <stop stop-color="#fffaf2"/>
      <stop offset="1" stop-color="#f2e5d2"/>
    </linearGradient>
    <linearGradient id="tomato" x1="59" y1="24" x2="78" y2="43" gradientUnits="userSpaceOnUse">
      <stop stop-color="#ef9f73"/>
      <stop offset="1" stop-color="#c95e49"/>
    </linearGradient>
  </defs>
  <rect width="96" height="96" rx="24" fill="url(#bg)"/>
  <circle cx="21" cy="75" r="20" fill="#7b8b5b" opacity=".16"/>
  <circle cx="76" cy="22" r="18" fill="#c95e49" opacity=".16"/>
  <path d="M34 16c-5 6-5 12 0 18M48 13c-6 7-6 15 0 22M62 16c5 6 5 12 0 18" fill="none" stroke="#fffaf2" stroke-width="4" stroke-linecap="round" opacity=".9"/>
  <path d="M20 49h56v10c0 14-10 24-24 24h-8c-14 0-24-10-24-24V49Z" fill="url(#bowl)"/>
  <path d="M17 49h62" fill="none" stroke="#fffaf2" stroke-width="7" stroke-linecap="round"/>
  <path d="M23 59H13c-4 0-7 3-7 7s3 7 7 7h11" fill="none" stroke="#f7f1e7" stroke-width="5" stroke-linecap="round"/>
  <path d="M73 59h10c4 0 7 3 7 7s-3 7-7 7H72" fill="none" stroke="#f7f1e7" stroke-width="5" stroke-linecap="round"/>
  <path d="M36 62h24" fill="none" stroke="#1f211d" stroke-opacity=".2" stroke-width="4" stroke-linecap="round"/>
  <path d="M40 73h17" fill="none" stroke="#c95e49" stroke-width="5" stroke-linecap="round"/>
  <path d="M63 31c6-2 12 1 13 7 1 7-4 12-10 12s-11-6-9-12c1-3 3-6 6-7Z" fill="url(#tomato)"/>
  <path d="M64 31c3-6 6-8 12-9-1 6-5 9-12 9Z" fill="#7b8b5b"/>
  <circle cx="68" cy="39" r="2.4" fill="#fffaf2" opacity=".72"/>
  <path d="M27 79c18-4 38-17 54-38" fill="none" stroke="#c95e49" stroke-width="6" stroke-linecap="round"/>
  <path d="M29 78c15-4 34-17 48-35" fill="none" stroke="#f1a176" stroke-width="2.5" stroke-linecap="round" opacity=".8"/>
  <path d="M36 38c-5-6-10-9-18-10 1 8 7 12 18 10Z" fill="#7b8b5b"/>
</svg>
