<svg xmlns="http://www.w3.org/2000/svg" viewBox="0 0 96 96" role="img" aria-labelledby="title">
  <title id="title">Savor</title>
  <rect width="96" height="96" rx="30" fill="#09090B"/>
  <rect x="1" y="1" width="94" height="94" rx="29" fill="none" stroke="#2A2A30" stroke-width="1.5"/>
  <circle cx="48" cy="52" r="25" fill="none" stroke="#F5F5F3" stroke-width="2.7"/>
  <path
    d="M59 37c-4.2-4.9-14.2-6.2-19.2-1.8-3.9 3.4-2.4 8.9 3.9 10.7l8.6 2.4c6.5 1.8 8.5 7.1 4.2 11-5.2 4.7-16.6 3.6-20.8-2.3"
    fill="none"
    stroke="#F5F5F3"
    stroke-width="4"
    stroke-linecap="round"
    stroke-linejoin="round"
  />
  <path d="M59.8 25.4c8.2.4 13.3 5.6 13.6 13.8-8.4-.2-13.4-5.2-13.6-13.8Z" fill="#7BAE7F"/>
  <path d="M62.2 28.2 72 38" fill="none" stroke="#09090B" stroke-width="1.8" stroke-linecap="round"/>
  <path d="M31 74h34" fill="none" stroke="#C89B5B" stroke-width="2.5" stroke-linecap="round" opacity="0.82"/>
</svg>
