<svg xmlns="http://www.w3.org/2000/svg" viewBox="0 0 96 96" role="img" aria-labelledby="title desc">
  <title id="title">Receitas</title>
  <desc id="desc">Logo moderna com livro de receitas aberto, vapor, colher, tomate e folha.</desc>
  <defs>
    <linearGradient id="bg" x1="12" y1="10" x2="86" y2="88" gradientUnits="userSpaceOnUse">
      <stop stop-color="#1f211d"/>
      <stop offset="1" stop-color="#3b442f"/>
    </linearGradient>
    <linearGradient id="paper" x1="20" y1="35" x2="75" y2="82" gradientUnits="userSpaceOnUse">
      <stop stop-color="#fffaf2"/>
      <stop offset="1" stop-color="#f7f1e7"/>
    </linearGradient>
    <linearGradient id="tomato" x1="63" y1="25" x2="80" y2="42" gradientUnits="userSpaceOnUse">
      <stop stop-color="#e69a70"/>
      <stop offset="1" stop-color="#c95e49"/>
    </linearGradient>
  </defs>
  <rect width="96" height="96" rx="24" fill="url(#bg)"/>
  <circle cx="22" cy="76" r="20" fill="#7b8b5b" opacity=".16"/>
  <circle cx="77" cy="22" r="18" fill="#c95e49" opacity=".16"/>
  <path d="M35 18c-4 5-4 10 0 15M48 15c-5 6-5 12 0 18M61 18c4 5 4 10 0 15" fill="none" stroke="#fffaf2" stroke-width="4" stroke-linecap="round" opacity=".85"/>
  <g>
    <path d="M19 42c0-5 4-9 9-9h14c4 0 7 1 9 4v39c-3-3-6-4-10-4H28c-5 0-9-4-9-9V42Z" fill="url(#paper)"/>
    <path d="M51 37c2-3 5-4 9-4h8c5 0 9 4 9 9v30c0 5-4 9-9 9h-9c-4 0-6 1-8 4V37Z" fill="#fffaf2"/>
    <path d="M50 37v48" stroke="#1f211d" stroke-opacity=".12" stroke-width="3" stroke-linecap="round"/>
    <path d="M30 49h12M30 58h14M59 58h9M59 67h7" stroke="#1f211d" stroke-opacity=".55" stroke-width="4" stroke-linecap="round"/>
    <path d="M30 67h8" stroke="#c95e49" stroke-width="5" stroke-linecap="round"/>
  </g>
  <path d="M67 36c5-2 10 1 11 6 1 6-3 11-9 11s-10-5-9-11c1-3 3-5 7-6Z" fill="url(#tomato)"/>
  <path d="M68 36c2-5 5-7 10-8-1 5-4 8-10 8Z" fill="#7b8b5b"/>
  <circle cx="71" cy="44" r="2.5" fill="#fffaf2" opacity=".7"/>
  <path d="M22 76c17-3 37-15 54-35" fill="none" stroke="#c95e49" stroke-width="6" stroke-linecap="round"/>
  <path d="M24 75c14-3 33-14 48-31" fill="none" stroke="#e69a70" stroke-width="2.5" stroke-linecap="round" opacity=".75"/>
  <path d="M67 63c5 5 5 12 0 17-5 5-13 5-18 0 4-11 8-15 18-17Z" fill="#7b8b5b"/>
  <path d="M53 78c5-5 10-8 17-12" fill="none" stroke="#fffaf2" stroke-width="3.5" stroke-linecap="round"/>
</svg>
